<?xml version="1.0" encoding="utf-8"?>
<!-- Generator: Adobe Illustrator 22.1.0, SVG Export Plug-In . SVG Version: 6.00 Build 0)  -->
<svg version="1.1" id="Calque_1" xmlns="http://www.w3.org/2000/svg" xmlns:xlink="http://www.w3.org/1999/xlink" x="0px" y="0px"
	 viewBox="0 0 23 21.9" style="enable-background:new 0 0 23 21.9;" xml:space="preserve">
<style type="text/css">
	.st0{fill:#F73F00;}
	.st1{fill:#FFD5BC;}
</style>
<g id="Calque_2_1_">
	<g id="Calque_1-2">
		<path class="st0" d="M19.2,13.8c-0.4,0.9-0.9,2-2,2.1c-1.4,0.2-2.8,0.6-4.2,1.2c-0.2,0.1-0.3,0.2-0.5,0.3s-0.3,0.2-0.5,0.3
			c-2.2,1.6-4.4-0.6-5.9-2.3C6,15.3,5.9,15.2,5.7,15c-1.8-2-2.6-4.6-1.7-7c1.3-3.5,5.8-5.1,10-3.5c3.7,1.4,6,4.9,5.5,8.1
			c0,0.2-0.1,0.4-0.1,0.6C19.4,13.4,19.3,13.6,19.2,13.8z"/>
		<path class="st1" d="M7.3,8c0.3,0.1,0.5,0.2,0.7,0.5L7.5,8.9c-0.3-0.3-0.6-0.4-1-0.4c-0.3,0-0.5,0.2-0.7,0.4
			C5.8,9.2,5.7,9.5,5.8,9.7c0,0.3,0.2,0.5,0.4,0.7c0.2,0.2,0.5,0.2,0.8,0.1c0.4-0.1,0.6-0.3,0.8-0.7l0.5,0.2
			c-0.1,0.3-0.2,0.5-0.5,0.7c-0.2,0.2-0.5,0.3-0.8,0.4c-0.4,0.1-0.9,0-1.2-0.2c-0.4-0.2-0.6-0.6-0.7-1C5,9.4,5.1,9,5.4,8.6
			C5.6,8.3,6,8,6.5,8C6.7,7.9,7,7.9,7.3,8z"/>
		<path class="st1" d="M8.9,9.2l1.4-0.1l0,0.6l-2,0.1L8.1,6.7l0.6,0L8.9,9.2z"/>
		<path class="st1" d="M11.2,10.5l-0.6,0l0-3.1l0.6,0L11.2,10.5z"/>
		<path class="st1" d="M14,6.9c0.2,0.1,0.4,0.3,0.6,0.6l-0.5,0.3c-0.2-0.3-0.5-0.5-0.9-0.5c-0.3,0-0.5,0.1-0.7,0.3
			c-0.2,0.2-0.3,0.5-0.3,0.7c0,0.3,0.1,0.5,0.3,0.7c0.2,0.2,0.5,0.3,0.7,0.3c0.4,0,0.7-0.2,0.9-0.5l0.5,0.3
			c-0.1,0.2-0.3,0.4-0.6,0.6c-0.6,0.3-1.4,0.2-2-0.3c-0.3-0.3-0.5-0.7-0.5-1.1c0-0.4,0.2-0.8,0.5-1.1c0.3-0.3,0.7-0.5,1.2-0.5
			C13.4,6.7,13.7,6.8,14,6.9z"/>
		<path class="st1" d="M10.3,11.3c0.2,0.1,0.4,0.3,0.6,0.6l-0.5,0.3c-0.2-0.4-0.5-0.5-0.9-0.5c-0.3,0-0.5,0.1-0.7,0.3
			c-0.2,0.2-0.3,0.5-0.3,0.7c0,0.3,0.1,0.5,0.3,0.7c0.2,0.2,0.4,0.3,0.7,0.3c0.4,0,0.7-0.2,0.9-0.5l0.5,0.4
			c-0.1,0.2-0.3,0.4-0.6,0.6c-0.7,0.3-1.5,0.2-2-0.3c-0.6-0.6-0.6-1.7,0.1-2.3c0,0,0,0,0,0c0.3-0.3,0.8-0.5,1.2-0.4
			C9.8,11.1,10.1,11.2,10.3,11.3z"/>
		<path class="st1" d="M12.1,14.5l1.3-0.2l0.1,0.6l-2,0.3l-0.5-3.1l0.6-0.1L12.1,14.5z"/>
		<path class="st1" d="M17.7,12.2c0.4,0.4,0.3,1-0.1,1.4c0,0,0,0,0,0c-0.2,0.2-0.5,0.2-0.8,0.2l-0.5-0.1l-0.1,1.1l-0.6-0.1l0.3-3.1
			l1.2,0.1C17.2,11.9,17.5,12,17.7,12.2z M16.3,12.4l-0.1,0.9l0.5,0.1c0.1,0,0.3,0,0.4-0.1c0.1-0.1,0.1-0.2,0.2-0.3
			c0-0.1,0-0.2-0.1-0.3c-0.1-0.1-0.2-0.1-0.3-0.2L16.3,12.4z"/>
		<path class="st1" d="M15.3,11.4l0-0.7l-0.6,0l0,0.2c0,0,0,0,0,0l0,0.3c-0.2-0.4-0.6-0.6-1.1-0.6c-0.9,0-1.5,0.6-1.5,1.5
			c0,0.9,0.5,1.6,1.4,1.6c0.4,0,0.8-0.2,1.1-0.5l0,0.3c0,0,0,0,0,0l0,0.2l0.6,0l0-0.2c0,0,0,0,0,0l0-0.2l0,0L15.3,11.4L15.3,11.4z
			 M13.7,13.2c-0.6,0-0.9-0.5-0.9-1.1c0-0.6,0.4-1,1-1c0.6,0,1,0.5,1,1.1C14.7,12.8,14.2,13.2,13.7,13.2z"/>
	</g>
</g>
</svg>
