<svg xmlns="http://www.w3.org/2000/svg" viewBox="0 0 196.38 177.32"><defs><style>.cls-1{fill:#f73f00;}.cls-2{fill:#ffd5bc;}</style></defs><title>Fichier 1</title><g id="Calque_2" data-name="Calque 2"><g id="Calque_1-2" data-name="Calque 1"><path class="cls-1" d="M191.63,122c-4.5,11.68-11.64,24.39-24.73,26.37a172.74,172.74,0,0,0-51.16,15.09c-2,1-4,2.11-6,3.3s-4,2.49-6,3.89c-26.57,19.22-54.23-7.47-72.63-28q-3.09-2.83-5.9-5.87C2.65,112.59-6.32,80.14,4.71,51.08,21.25,7.49,76.51-12,128.14,7.63,174,25,201.61,67.45,195.55,107.27A68.49,68.49,0,0,1,194,114.7,65.38,65.38,0,0,1,191.63,122Z"/><path class="cls-2" d="M44.58,50.69a18.47,18.47,0,0,1,8.14,5.61l-5.06,5.17q-5.16-5.58-11.95-4.34a11.89,11.89,0,0,0-8.08,5.08,12.41,12.41,0,0,0-1.78,9.58A12.27,12.27,0,0,0,30.91,80a11.92,11.92,0,0,0,9.36,1.84q6.78-1.25,9.61-8.31l6.57,3a17.94,17.94,0,0,1-5.58,8.13A19.88,19.88,0,0,1,41.52,89a20,20,0,0,1-15.26-3,18.9,18.9,0,0,1-8.34-12.83,18.81,18.81,0,0,1,3.26-14.95A20.06,20.06,0,0,1,34.4,50,19.61,19.61,0,0,1,44.58,50.69Z"/><path class="cls-2" d="M63.93,65.42l16.74-.74L81,71.74l-24.56,1.1L54.72,34.61l7.82-.35Z"/><path class="cls-2" d="M92.55,80.81l-7.82-.06L85,42.49l7.83.06Z"/><path class="cls-2" d="M126.88,37a18.42,18.42,0,0,1,7,7L128,48.12q-4.07-6.43-11-6.44a11.9,11.9,0,0,0-8.87,3.54,12.43,12.43,0,0,0-3.48,9.1,12.27,12.27,0,0,0,3.48,9A12,12,0,0,0,117,66.85q6.9,0,11-6.44l5.91,4.17a17.89,17.89,0,0,1-7,7,21.12,21.12,0,0,1-24.45-3.19,18.9,18.9,0,0,1-5.88-14.12,18.83,18.83,0,0,1,5.91-14.11A20.09,20.09,0,0,1,117,34.44,19.69,19.69,0,0,1,126.88,37Z"/><path class="cls-2" d="M82,91.47a18.49,18.49,0,0,1,6.79,7.19l-6,4Q78.88,96.12,72,95.91a11.9,11.9,0,0,0-9,3.28,12.41,12.41,0,0,0-3.74,9,12.2,12.2,0,0,0,3.22,9.11,12,12,0,0,0,8.76,3.77q6.9.2,11.14-6.12l5.79,4.34A17.88,17.88,0,0,1,81,126.07a21.09,21.09,0,0,1-24.34-3.88A19.84,19.84,0,0,1,57.54,94a20,20,0,0,1,14.65-5.29A19.67,19.67,0,0,1,82,91.47Z"/><path class="cls-2" d="M104,131.14l16.55-2.64,1.11,7-24.28,3.86-6-37.79,7.73-1.23Z"/><path class="cls-2" d="M172.83,102.8a12.34,12.34,0,0,1-1.73,17.83,14.36,14.36,0,0,1-10.23,2.47l-6.52-.63-1.3,13.45-7.8-.76L149,97.07l14.31,1.39A14.49,14.49,0,0,1,172.83,102.8Zm-16.76,1.9-1.06,11,6.52.63a5.74,5.74,0,0,0,4.39-1.11,5.45,5.45,0,0,0,1.92-3.87,5.25,5.25,0,0,0-1.18-4.07,5.83,5.83,0,0,0-4.07-1.91Z"/><path class="cls-2" d="M143.74,92.53l.38-8.82-7.58-.22-.11,2.28a2.33,2.33,0,0,0,0,.38l-.13,3.17a15.33,15.33,0,0,0-12.95-7.18c-11-.44-18.66,7.9-19.09,18.53s6.52,19.64,17.52,20.09a15.29,15.29,0,0,0,13.49-6.11l-.13,3.18a.48.48,0,0,0,0,.12l-.09,2.53,7.53.34.12-2.35a1.86,1.86,0,0,0,0-.33l.08-2h0l1-23.61Zm-20.69,21.63c-7.47-.31-11.51-6.24-11.23-13.18s4.8-12.53,12.26-12.22c7.31.29,12,5.89,11.81,13.2S130.36,114.46,123.05,114.16Z"/></g></g></svg>