<?xml version="1.0" encoding="utf-8"?>
<!-- Generator: Adobe Illustrator 22.1.0, SVG Export Plug-In . SVG Version: 6.00 Build 0)  -->
<svg version="1.1" id="Calque_1" xmlns="http://www.w3.org/2000/svg" xmlns:xlink="http://www.w3.org/1999/xlink" x="0px" y="0px"
	 viewBox="0 0 110 73" style="enable-background:new 0 0 110 73;" xml:space="preserve">
<style type="text/css">
	.st0{fill:#FBD4BC;}
</style>
<path id="XMLID_383_" class="st0" d="M42.1,11.8c-0.9,0.9-0.9,2.5,0,3.4l19.6,19.6L42.1,54.3c-1,0.9-1,2.5,0,3.4
	c0.9,0.9,2.5,0.9,3.4,0l21.1-21c0.1-0.1,0.1-0.1,0.2-0.2c0.5-0.5,0.7-1.1,0.7-1.7c0-0.6-0.2-1.2-0.7-1.7c-0.1-0.1-0.1-0.1-0.2-0.2
	l-21.1-21C44.5,10.8,42.9,10.8,42.1,11.8z"/>
</svg>
