<?xml version="1.0" encoding="utf-8"?>
<!-- Generator: Adobe Illustrator 22.1.0, SVG Export Plug-In . SVG Version: 6.00 Build 0)  -->
<svg version="1.1" id="Calque_1" xmlns="http://www.w3.org/2000/svg" xmlns:xlink="http://www.w3.org/1999/xlink" x="0px" y="0px"
	 viewBox="0 0 110 73" style="enable-background:new 0 0 110 73;" xml:space="preserve">
<style type="text/css">
	.st0{fill:#FBD4BC;}
</style>
<path id="XMLID_383_" class="st0" d="M31.5,47.1c0.9,0.9,2.5,0.9,3.4,0l19.6-19.6L74,47.1c0.9,1,2.5,1,3.4,0c0.9-0.9,0.9-2.5,0-3.4
	l-21-21.1c-0.1-0.1-0.1-0.1-0.2-0.2c-0.5-0.5-1.1-0.7-1.7-0.7c-0.6,0-1.2,0.2-1.7,0.7c-0.1,0.1-0.1,0.1-0.2,0.2l-21,21.1
	C30.6,44.7,30.6,46.3,31.5,47.1z"/>
</svg>
