<?xml version="1.0" encoding="utf-8"?>
<!-- Generator: Adobe Illustrator 22.1.0, SVG Export Plug-In . SVG Version: 6.00 Build 0)  -->
<svg version="1.1" id="Calque_1" xmlns="http://www.w3.org/2000/svg" xmlns:xlink="http://www.w3.org/1999/xlink" x="0px" y="0px"
	 viewBox="0 0 110 73" style="enable-background:new 0 0 110 73;" xml:space="preserve">
<style type="text/css">
	.st0{fill:#FBD4BC;}
</style>
<path id="XMLID_383_" class="st0" d="M66.9,57.7c0.9-0.9,0.9-2.5,0-3.4L47.3,34.7l19.6-19.6c1-0.9,1-2.5,0-3.4
	c-0.9-0.9-2.5-0.9-3.4,0l-21.1,21c-0.1,0.1-0.1,0.1-0.2,0.2c-0.5,0.5-0.7,1.1-0.7,1.7c0,0.6,0.2,1.2,0.7,1.7
	c0.1,0.1,0.1,0.1,0.2,0.2l21.1,21C64.5,58.6,66,58.6,66.9,57.7z"/>
</svg>
