<?xml version="1.0" encoding="utf-8"?>
<!-- Generator: Adobe Illustrator 22.1.0, SVG Export Plug-In . SVG Version: 6.00 Build 0)  -->
<svg version="1.1" id="Calque_1" xmlns="http://www.w3.org/2000/svg" xmlns:xlink="http://www.w3.org/1999/xlink" x="0px" y="0px"
	 viewBox="0 0 32 32" style="enable-background:new 0 0 32 32;" xml:space="preserve">
<style type="text/css">
	.st0{fill:#F73F00;}
	.st1{fill:#FFD5BC;}
</style>
<g id="Calque_2_1_">
	<g id="Calque_1-2">
		<path class="st0" d="M30.2,22.3c-0.7,1.8-1.8,3.8-3.9,4.1c-2.8,0.4-5.5,1.2-8,2.4c-0.3,0.2-0.6,0.3-0.9,0.5s-0.6,0.4-0.9,0.6
			c-4.1,3-8.5-1.2-11.3-4.4c-0.3-0.3-0.6-0.6-0.9-0.9c-3.5-3.8-4.9-8.8-3.2-13.4c2.6-6.8,11.2-9.8,19.3-6.8
			c7.2,2.7,11.5,9.3,10.5,15.5c-0.1,0.4-0.1,0.8-0.2,1.2C30.5,21.6,30.4,22,30.2,22.3z"/>
		<path class="st1" d="M7.3,11.2c0.5,0.2,0.9,0.5,1.3,0.9l-0.8,0.8c-0.5-0.6-1.2-0.8-1.9-0.7c-0.5,0.1-1,0.4-1.3,0.8
			c-0.3,0.4-0.4,1-0.3,1.5c0.1,0.5,0.4,1,0.8,1.3c0.4,0.3,1,0.4,1.5,0.3c0.7-0.1,1.2-0.6,1.5-1.3l1,0.5c-0.2,0.5-0.5,0.9-0.9,1.3
			c-0.4,0.4-0.9,0.6-1.5,0.7c-0.8,0.2-1.7,0-2.4-0.5c-0.7-0.5-1.2-1.2-1.3-2c-0.2-0.8,0-1.7,0.5-2.3c0.5-0.7,1.2-1.1,2.1-1.3
			C6.2,11,6.8,11,7.3,11.2z"/>
		<path class="st1" d="M10.3,13.5l2.6-0.1l0.1,1.1l-3.8,0.2l-0.3-6l1.2-0.1L10.3,13.5z"/>
		<path class="st1" d="M14.8,15.9l-1.2,0l0-6l1.2,0L14.8,15.9z"/>
		<path class="st1" d="M20.1,9.1c0.5,0.3,0.8,0.6,1.1,1.1l-0.9,0.6c-0.4-0.7-1-1-1.7-1c-0.5,0-1,0.2-1.4,0.6
			c-0.4,0.4-0.6,0.9-0.5,1.4c0,0.5,0.2,1,0.5,1.4c0.4,0.4,0.9,0.6,1.4,0.6c0.7,0,1.3-0.3,1.7-1l0.9,0.7c-0.3,0.5-0.6,0.8-1.1,1.1
			c-1.2,0.7-2.8,0.5-3.8-0.5c-0.6-0.6-0.9-1.4-0.9-2.2c0-0.8,0.3-1.6,0.9-2.2c0.6-0.6,1.4-0.9,2.3-0.9C19.1,8.7,19.7,8.8,20.1,9.1z"
			/>
		<path class="st1" d="M13.1,17.6c0.4,0.3,0.8,0.7,1.1,1.1l-0.9,0.6c-0.4-0.7-1-1-1.7-1.1c-0.5,0-1,0.2-1.4,0.5
			c-0.4,0.4-0.6,0.9-0.6,1.4c0,0.5,0.1,1,0.5,1.4c0.4,0.4,0.8,0.6,1.4,0.6c0.7,0,1.3-0.3,1.7-1l0.9,0.7c-0.3,0.5-0.7,0.8-1.1,1.1
			c-1.3,0.6-2.8,0.4-3.8-0.6C8,21.1,8.1,19.2,9.3,18c0,0,0,0,0,0c0.6-0.6,1.4-0.9,2.3-0.8C12.1,17.2,12.7,17.3,13.1,17.6z"/>
		<path class="st1" d="M16.6,23.8l2.6-0.4l0.2,1.1l-3.8,0.6l-0.9-5.9l1.2-0.2L16.6,23.8z"/>
		<path class="st1" d="M27.3,19.4c0.7,0.8,0.6,2-0.2,2.7c0,0-0.1,0-0.1,0.1c-0.5,0.3-1,0.5-1.6,0.4l-1-0.1l-0.2,2.1L23,24.4l0.6-5.9
			l2.2,0.2C26.4,18.7,26.9,18.9,27.3,19.4z M24.7,19.6l-0.2,1.7l1,0.1c0.2,0,0.5,0,0.7-0.2c0.2-0.2,0.3-0.4,0.3-0.6
			c0-0.2,0-0.5-0.2-0.6c-0.2-0.2-0.4-0.3-0.6-0.3L24.7,19.6z"/>
		<path class="st1" d="M22.8,17.7l0.1-1.4l-1.2,0l0,0.4c0,0,0,0,0,0.1l0,0.5c-0.4-0.7-1.2-1.1-2-1.1c-1.7-0.1-2.9,1.2-3,2.9
			c-0.1,1.7,1,3.1,2.7,3.1c0.8,0.1,1.6-0.3,2.1-1l0,0.5c0,0,0,0,0,0l0,0.4l1.2,0.1l0-0.4c0,0,0,0,0-0.1l0-0.3l0,0L22.8,17.7
			L22.8,17.7z M19.5,21.1c-1.2,0-1.8-1-1.8-2.1c0-1.1,0.7-2,1.9-1.9c1.1,0,1.9,0.9,1.8,2.1C21.5,20.4,20.7,21.2,19.5,21.1z"/>
	</g>
</g>
</svg>
