<?xml version="1.0" encoding="utf-8"?>
<!-- Generator: Adobe Illustrator 22.1.0, SVG Export Plug-In . SVG Version: 6.00 Build 0)  -->
<svg version="1.1" id="Calque_1" xmlns="http://www.w3.org/2000/svg" xmlns:xlink="http://www.w3.org/1999/xlink" x="0px" y="0px"
	 viewBox="0 0 100 100" style="enable-background:new 0 0 100 100;" xml:space="preserve">
<style type="text/css">
	.st0{fill:#F73F00;}
	.st1{fill:#FFD5BC;}
</style>
<g id="Calque_2_1_">
	<g id="Calque_1-2">
		<path class="st0" d="M95,67.3c-2.2,5.7-5.7,11.8-12,12.8c-8.6,1.1-17,3.6-24.8,7.3c-1,0.5-1.9,1-2.9,1.6c-1,0.6-1.9,1.2-2.9,1.9
			c-12.9,9.3-26.3-3.6-35.3-13.6c-1-0.9-2-1.9-2.9-2.9C3.3,62.8-1.1,47,4.3,32.9c8-21.2,34.9-30.6,59.9-21.1
			c22.3,8.4,35.7,29,32.7,48.4c-0.2,1.2-0.4,2.4-0.8,3.6C95.9,65,95.5,66.2,95,67.3z"/>
		<path class="st1" d="M23.6,32.7c1.5,0.5,2.9,1.5,4,2.7L25.1,38c-1.7-1.8-3.6-2.5-5.8-2.1c-1.6,0.2-3,1.1-3.9,2.5
			c-0.9,1.4-1.2,3-0.9,4.7c0.2,1.6,1.1,3,2.5,4c1.3,0.9,3,1.2,4.5,0.9c2.2-0.4,3.8-1.7,4.7-4l3.2,1.5c-0.5,1.5-1.5,2.9-2.7,3.9
			c-1.3,1.1-2.9,1.8-4.5,2.1c-2.6,0.5-5.2,0-7.4-1.5c-2.2-1.4-3.6-3.7-4.1-6.2c-0.5-2.5,0.1-5.2,1.6-7.3c1.5-2.1,3.8-3.6,6.4-4
			C20.3,32.1,22,32.2,23.6,32.7z"/>
		<path class="st1" d="M33,39.9l8.1-0.4l0.2,3.4l-11.9,0.5l-0.8-18.6l3.8-0.2L33,39.9z"/>
		<path class="st1" d="M46.9,47.3l-3.8,0l0.1-18.6l3.8,0L46.9,47.3z"/>
		<path class="st1" d="M63.6,26.1c1.4,0.8,2.6,2,3.4,3.4l-2.9,2c-1.3-2.1-3.1-3.1-5.3-3.1c-1.6-0.1-3.2,0.6-4.3,1.7
			c-1.1,1.2-1.8,2.8-1.7,4.4c-0.1,1.6,0.6,3.2,1.7,4.4c1.1,1.1,2.7,1.8,4.3,1.7c2.2,0,4-1,5.3-3.1l2.9,2c-0.8,1.4-2,2.6-3.4,3.4
			c-3.9,2.1-8.7,1.5-11.9-1.5c-1.9-1.8-2.9-4.3-2.9-6.9c-0.1-2.6,1-5.1,2.9-6.9c1.9-1.8,4.4-2.8,7-2.8
			C60.5,24.8,62.1,25.2,63.6,26.1z"/>
		<path class="st1" d="M41.8,52.5c1.4,0.8,2.5,2,3.3,3.5L42.2,58c-1.3-2.1-3-3.2-5.2-3.3c-1.6-0.1-3.2,0.5-4.4,1.6
			c-1.2,1.1-1.8,2.7-1.8,4.4c-0.1,1.6,0.5,3.2,1.6,4.4c1.1,1.2,2.6,1.8,4.3,1.8c2.2,0.1,4-0.9,5.4-3l2.8,2.1c-0.8,1.4-2,2.5-3.5,3.3
			c-3.9,2-8.7,1.2-11.8-1.9c-3.7-3.9-3.5-10,0.4-13.6c0,0,0,0,0.1-0.1c1.9-1.8,4.5-2.7,7.1-2.6C38.7,51.2,40.4,51.7,41.8,52.5z"/>
		<path class="st1" d="M52.5,71.8l8-1.3l0.5,3.4l-11.8,1.9l-2.9-18.4l3.8-0.6L52.5,71.8z"/>
		<path class="st1" d="M85.9,58c2.2,2.5,1.9,6.3-0.6,8.5c-0.1,0.1-0.2,0.1-0.2,0.2c-1.4,1-3.2,1.4-5,1.2l-3.2-0.3l-0.6,6.5l-3.8-0.4
			l1.8-18.5l6.9,0.7C83,56,84.7,56.8,85.9,58z M77.8,58.9l-0.5,5.3l3.2,0.3c0.8,0.1,1.5-0.1,2.1-0.5c0.6-0.5,0.9-1.2,0.9-1.9
			c0.1-0.7-0.1-1.4-0.6-2c-0.5-0.6-1.2-0.9-2-0.9L77.8,58.9z"/>
		<path class="st1" d="M71.8,53l0.2-4.3l-3.7-0.1l-0.1,1.1c0,0.1,0,0.1,0,0.2l-0.1,1.5c-1.4-2.2-3.7-3.5-6.3-3.5
			c-5.3-0.2-9.1,3.8-9.3,9c-0.2,5.2,3.2,9.5,8.5,9.8c2.5,0.2,5-0.9,6.6-3l-0.1,1.5c0,0,0,0,0,0.1l0,1.2l3.7,0.2l0.1-1.1
			c0-0.1,0-0.1,0-0.2l0-1l0,0L71.8,53L71.8,53z M61.7,63.5c-3.6-0.2-5.6-3-5.5-6.4c0.1-3.4,2.3-6.1,6-5.9c3.5,0.1,5.8,2.9,5.7,6.4
			C67.9,61.2,65.3,63.7,61.7,63.5z"/>
	</g>
</g>
</svg>
