<?xml version="1.0" encoding="utf-8"?>
<!-- Generator: Adobe Illustrator 22.1.0, SVG Export Plug-In . SVG Version: 6.00 Build 0)  -->
<svg version="1.1" id="Calque_1" xmlns="http://www.w3.org/2000/svg" xmlns:xlink="http://www.w3.org/1999/xlink" x="0px" y="0px"
	 viewBox="0 0 65 62" style="enable-background:new 0 0 65 62;" xml:space="preserve">
<style type="text/css">
	.st0{fill:#F73F00;}
	.st1{fill:#FFD5BC;}
</style>
<g id="Calque_2_1_">
	<g id="Calque_1-2">
		<path class="st0" d="M59.2,40.7c-1.3,3.3-3.3,6.9-7,7.5c-5,0.7-9.9,2.1-14.5,4.3c-0.6,0.3-1.1,0.6-1.7,0.9
			c-0.6,0.3-1.1,0.7-1.7,1.1c-7.6,5.5-15.4-2.1-20.6-8c-0.6-0.5-1.1-1.1-1.7-1.7C5.5,38,3,28.8,6.1,20.5C10.8,8.1,26.5,2.6,41.2,8.2
			c13,4.9,20.9,17,19.2,28.3c-0.1,0.7-0.3,1.4-0.4,2.1C59.7,39.3,59.5,40,59.2,40.7z"/>
		<path class="st1" d="M17.4,20.4c0.9,0.3,1.7,0.9,2.3,1.6l-1.4,1.5c-1-1.1-2.1-1.5-3.4-1.2c-0.9,0.1-1.8,0.7-2.3,1.4
			c-0.5,0.8-0.7,1.8-0.5,2.7c0.1,0.9,0.7,1.8,1.4,2.3c0.8,0.5,1.7,0.7,2.7,0.5c1.3-0.2,2.2-1,2.7-2.4l1.9,0.9
			c-0.3,0.9-0.9,1.7-1.6,2.3c-0.8,0.6-1.7,1.1-2.7,1.2c-1.5,0.3-3.1,0-4.3-0.9c-1.3-0.8-2.1-2.2-2.4-3.6c-0.3-1.5,0-3,0.9-4.2
			c0.9-1.3,2.2-2.1,3.8-2.3C15.5,20,16.5,20.1,17.4,20.4z"/>
		<path class="st1" d="M22.9,24.6l4.8-0.2l0.1,2l-7,0.3l-0.5-10.9l2.2-0.1L22.9,24.6z"/>
		<path class="st1" d="M31.1,29l-2.2,0l0.1-10.9l2.2,0L31.1,29z"/>
		<path class="st1" d="M40.8,16.5c0.8,0.5,1.5,1.2,2,2l-1.7,1.2c-0.8-1.2-1.8-1.8-3.1-1.8c-0.9,0-1.9,0.3-2.5,1
			c-0.7,0.7-1,1.6-1,2.6c0,1,0.3,1.9,1,2.6c0.7,0.7,1.6,1,2.5,1c1.3,0,2.3-0.6,3.1-1.8l1.7,1.2c-0.5,0.8-1.2,1.5-2,2
			c-2.3,1.2-5.1,0.9-6.9-0.9c-1.1-1-1.7-2.5-1.7-4c0-1.5,0.6-3,1.7-4c1.1-1.1,2.6-1.7,4.1-1.6C39,15.8,40,16,40.8,16.5z"/>
		<path class="st1" d="M28.1,32c0.8,0.5,1.5,1.2,1.9,2l-1.7,1.1c-0.7-1.2-1.8-1.9-3.1-1.9c-0.9-0.1-1.9,0.3-2.6,0.9
			c-0.7,0.7-1.1,1.6-1.1,2.6c-0.1,1,0.3,1.9,0.9,2.6c0.6,0.7,1.5,1.1,2.5,1.1c1.3,0,2.4-0.5,3.2-1.7l1.6,1.2c-0.5,0.8-1.2,1.5-2,1.9
			c-2.3,1.2-5.1,0.7-6.9-1.1c-2.1-2.3-2.1-5.8,0.2-8c0,0,0,0,0,0c1.1-1,2.6-1.6,4.2-1.5C26.3,31.2,27.2,31.5,28.1,32z"/>
		<path class="st1" d="M34.3,43.3l4.7-0.8l0.3,2l-6.9,1.1l-1.7-10.7l2.2-0.3L34.3,43.3z"/>
		<path class="st1" d="M53.9,35.2c1.3,1.5,1.1,3.7-0.3,4.9c0,0-0.1,0.1-0.1,0.1c-0.8,0.6-1.9,0.8-2.9,0.7l-1.9-0.2l-0.4,3.8
			l-2.2-0.2l1.1-10.8l4.1,0.4C52.2,34,53.2,34.5,53.9,35.2z M49.1,35.8l-0.3,3.1l1.9,0.2c0.4,0.1,0.9,0,1.2-0.3
			c0.3-0.3,0.5-0.7,0.5-1.1c0.1-0.4-0.1-0.8-0.3-1.2C51.8,36.2,51.4,36,51,36L49.1,35.8z"/>
		<path class="st1" d="M45.6,32.3l0.1-2.5l-2.2-0.1l0,0.6c0,0,0,0.1,0,0.1l0,0.9c-0.8-1.3-2.2-2-3.7-2c-3.1-0.1-5.3,2.2-5.4,5.3
			c-0.1,3,1.9,5.6,5,5.7c1.5,0.1,2.9-0.5,3.8-1.7l0,0.9c0,0,0,0,0,0l0,0.7l2.1,0.1l0-0.7c0,0,0-0.1,0-0.1l0-0.6l0,0L45.6,32.3
			L45.6,32.3z M39.7,38.4c-2.1-0.1-3.3-1.8-3.2-3.7s1.4-3.6,3.5-3.5c2.1,0.1,3.4,1.7,3.4,3.8C43.3,37.1,41.8,38.5,39.7,38.4z"/>
	</g>
</g>
</svg>
