<?xml version="1.0" encoding="utf-8"?>
<!-- Generator: Adobe Illustrator 22.1.0, SVG Export Plug-In . SVG Version: 6.00 Build 0)  -->
<svg version="1.1" id="Calque_1" xmlns="http://www.w3.org/2000/svg" xmlns:xlink="http://www.w3.org/1999/xlink" x="0px" y="0px"
	 viewBox="0 0 60 60" style="enable-background:new 0 0 60 60;" xml:space="preserve">
<style type="text/css">
	.st0{fill:#F73F00;}
	.st1{fill:#FFD5BC;}
</style>
<g id="Calque_2_1_">
	<g id="Calque_1-2">
		<path class="st0" d="M56.6,40.8c-1.3,3.4-3.4,7-7.1,7.6c-5.1,0.7-10.1,2.1-14.8,4.4c-0.6,0.3-1.2,0.6-1.7,1
			c-0.6,0.3-1.2,0.7-1.7,1.1c-7.7,5.5-15.6-2.2-20.9-8.1c-0.6-0.5-1.2-1.1-1.7-1.7c-6.5-7-9.1-16.3-5.9-24.7
			C7.5,7.7,23.4,2.1,38.3,7.8c13.2,5,21.2,17.3,19.4,28.7c-0.1,0.7-0.3,1.4-0.4,2.1C57.1,39.4,56.9,40.1,56.6,40.8z"/>
		<path class="st1" d="M14.2,20.2c0.9,0.3,1.7,0.9,2.3,1.6l-1.5,1.5c-1-1.1-2.1-1.5-3.4-1.3c-0.9,0.1-1.8,0.7-2.3,1.5
			c-0.5,0.8-0.7,1.8-0.5,2.8c0.1,1,0.7,1.8,1.5,2.4c0.8,0.5,1.8,0.7,2.7,0.5c1.3-0.2,2.2-1,2.8-2.4l1.9,0.9
			c-0.3,0.9-0.9,1.7-1.6,2.3c-0.8,0.6-1.7,1.1-2.7,1.3c-1.5,0.3-3.1,0-4.4-0.9c-1.3-0.8-2.2-2.2-2.4-3.7c-0.3-1.5,0-3.1,0.9-4.3
			c0.9-1.3,2.3-2.1,3.8-2.4C12.2,19.8,13.3,19.9,14.2,20.2z"/>
		<path class="st1" d="M19.8,24.4l4.8-0.2l0.1,2l-7.1,0.3l-0.5-11l2.3-0.1L19.8,24.4z"/>
		<path class="st1" d="M28,28.9l-2.3,0l0.1-11l2.3,0L28,28.9z"/>
		<path class="st1" d="M37.9,16.3c0.8,0.5,1.5,1.2,2,2l-1.7,1.2c-0.8-1.2-1.8-1.9-3.2-1.9c-1,0-1.9,0.3-2.6,1c-0.7,0.7-1,1.6-1,2.6
			c0,1,0.3,1.9,1,2.6c0.7,0.7,1.6,1,2.6,1c1.3,0,2.4-0.6,3.2-1.9l1.7,1.2c-0.5,0.8-1.2,1.5-2,2c-2.3,1.2-5.1,0.9-7.1-0.9
			c-1.1-1.1-1.7-2.5-1.7-4.1c0-1.5,0.6-3,1.7-4.1c1.1-1.1,2.6-1.7,4.2-1.6C36.1,15.5,37.1,15.8,37.9,16.3z"/>
		<path class="st1" d="M25,32c0.8,0.5,1.5,1.2,2,2.1l-1.7,1.2c-0.8-1.3-1.8-1.9-3.1-1.9c-1-0.1-1.9,0.3-2.6,0.9
			c-0.7,0.7-1.1,1.6-1.1,2.6c-0.1,1,0.3,1.9,0.9,2.6c0.7,0.7,1.6,1.1,2.5,1.1c1.3,0,2.4-0.5,3.2-1.8l1.7,1.3c-0.5,0.8-1.2,1.5-2.1,2
			c-2.3,1.2-5.2,0.7-7-1.1c-2.2-2.3-2.1-5.9,0.2-8.1c0,0,0,0,0,0c1.1-1.1,2.7-1.6,4.2-1.5C23.2,31.2,24.1,31.5,25,32z"/>
		<path class="st1" d="M31.3,43.4l4.8-0.8l0.3,2l-7,1.1l-1.7-10.9l2.2-0.4L31.3,43.4z"/>
		<path class="st1" d="M51.2,35.2c1.3,1.5,1.1,3.7-0.4,5c0,0-0.1,0.1-0.1,0.1c-0.9,0.6-1.9,0.9-3,0.7l-1.9-0.2l-0.4,3.9l-2.2-0.2
			l1.1-11l4.1,0.4C49.5,34,50.5,34.5,51.2,35.2z M46.4,35.8L46,38.9l1.9,0.2c0.4,0.1,0.9,0,1.3-0.3c0.3-0.3,0.5-0.7,0.6-1.1
			c0.1-0.4-0.1-0.8-0.3-1.2c-0.3-0.3-0.7-0.5-1.2-0.6L46.4,35.8z"/>
		<path class="st1" d="M42.8,32.3l0.1-2.5l-2.2-0.1l0,0.7c0,0,0,0.1,0,0.1l0,0.9c-0.8-1.3-2.2-2.1-3.7-2.1c-3.2-0.1-5.4,2.3-5.5,5.3
			s1.9,5.7,5.1,5.8c1.5,0.1,3-0.5,3.9-1.8l0,0.9c0,0,0,0,0,0l0,0.7l2.2,0.1l0-0.7c0,0,0-0.1,0-0.1l0-0.6l0,0L42.8,32.3L42.8,32.3z
			 M36.8,38.5c-2.2-0.1-3.3-1.8-3.2-3.8c0.1-2,1.4-3.6,3.5-3.5c2.1,0.1,3.5,1.7,3.4,3.8C40.5,37.1,38.9,38.6,36.8,38.5z"/>
	</g>
</g>
</svg>
