<?xml version="1.0" encoding="utf-8"?>
<!-- Generator: Adobe Illustrator 22.1.0, SVG Export Plug-In . SVG Version: 6.00 Build 0)  -->
<svg version="1.1" id="Calque_1" xmlns="http://www.w3.org/2000/svg" xmlns:xlink="http://www.w3.org/1999/xlink" x="0px" y="0px"
	 viewBox="0 0 90 90" style="enable-background:new 0 0 90 90;" xml:space="preserve">
<style type="text/css">
	.st0{fill:#F73F00;}
	.st1{fill:#FFD5BC;}
</style>
<g id="Calque_2_1_">
	<g id="Calque_1-2">
		<path class="st0" d="M86.2,61c-2,5.2-5.2,10.9-11,11.7c-7.9,1-15.6,3.3-22.8,6.7c-0.9,0.4-1.8,0.9-2.7,1.5
			c-0.9,0.5-1.8,1.1-2.7,1.7C35.3,91.2,23,79.3,14.8,70.2c-0.9-0.8-1.8-1.7-2.6-2.6c-10-10.8-14-25.2-9.1-38.1
			C10.4,10,35,1.4,58,10.1c20.4,7.7,32.7,26.6,30,44.3c-0.2,1.1-0.4,2.2-0.7,3.3C87,58.8,86.6,59.9,86.2,61z"/>
		<path class="st1" d="M20.8,29.3c1.4,0.5,2.7,1.4,3.6,2.5l-2.3,2.3c-1.5-1.7-3.3-2.3-5.3-1.9c-1.5,0.2-2.8,1-3.6,2.3
			c-0.8,1.3-1.1,2.8-0.8,4.3c0.2,1.5,1,2.8,2.3,3.7c1.2,0.8,2.7,1.1,4.2,0.8c2-0.4,3.4-1.6,4.3-3.7l2.9,1.3
			c-0.5,1.4-1.3,2.7-2.5,3.6c-1.2,1-2.6,1.7-4.2,1.9c-2.4,0.5-4.8,0-6.8-1.3c-2-1.3-3.3-3.4-3.7-5.7c-0.5-2.3,0-4.7,1.5-6.7
			c1.4-2,3.5-3.3,5.9-3.7C17.8,28.7,19.4,28.8,20.8,29.3z"/>
		<path class="st1" d="M29.4,35.8l7.4-0.3l0.1,3.1l-10.9,0.5l-0.8-17l3.5-0.2L29.4,35.8z"/>
		<path class="st1" d="M42.2,42.7l-3.5,0l0.1-17l3.5,0L42.2,42.7z"/>
		<path class="st1" d="M57.4,23.2c1.3,0.7,2.4,1.8,3.1,3.1l-2.6,1.8c-1.2-1.9-2.8-2.9-4.9-2.9c-1.5,0-2.9,0.5-3.9,1.6
			c-1,1.1-1.6,2.5-1.5,4c-0.1,1.5,0.5,2.9,1.5,4c1,1,2.5,1.6,3.9,1.6c2,0,3.7-1,4.9-2.9l2.6,1.9c-0.7,1.3-1.8,2.4-3.1,3.1
			c-3.6,1.9-7.9,1.3-10.9-1.4c-1.7-1.6-2.7-3.9-2.6-6.3c-0.1-2.4,0.9-4.7,2.6-6.3c1.7-1.7,4-2.6,6.5-2.5
			C54.6,22,56.1,22.4,57.4,23.2z"/>
		<path class="st1" d="M37.5,47.4c1.3,0.8,2.3,1.9,3,3.2l-2.7,1.8c-1.2-1.9-2.8-2.9-4.8-3c-1.5-0.1-2.9,0.4-4,1.5
			c-1.1,1.1-1.7,2.5-1.7,4c-0.1,1.5,0.4,3,1.4,4.1c1,1.1,2.4,1.7,3.9,1.7c2,0.1,3.7-0.8,5-2.7l2.6,1.9c-0.8,1.3-1.9,2.3-3.2,3
			c-3.6,1.8-8,1.1-10.8-1.7c-3.4-3.5-3.2-9.1,0.3-12.5c0,0,0,0,0.1-0.1c1.8-1.6,4.1-2.5,6.5-2.4C34.6,46.2,36.1,46.6,37.5,47.4z"/>
		<path class="st1" d="M47.2,65.1l7.4-1.2l0.5,3.1l-10.8,1.7l-2.7-16.8l3.4-0.5L47.2,65.1z"/>
		<path class="st1" d="M77.9,52.4c2,2.3,1.7,5.8-0.5,7.7c-0.1,0.1-0.2,0.1-0.2,0.2c-1.3,0.9-2.9,1.3-4.6,1.1l-2.9-0.3l-0.6,6
			l-3.5-0.3l1.7-16.9l6.4,0.6C75.2,50.6,76.7,51.3,77.9,52.4z M70.4,53.3l-0.5,4.9l2.9,0.3c0.7,0.1,1.4-0.1,2-0.5
			c0.5-0.4,0.8-1.1,0.9-1.7c0.1-0.7-0.1-1.3-0.5-1.8c-0.5-0.5-1.1-0.8-1.8-0.8L70.4,53.3z"/>
		<path class="st1" d="M64.9,47.9l0.2-3.9l-3.4-0.1l0,1c0,0.1,0,0.1,0,0.2l-0.1,1.4c-1.2-2-3.4-3.2-5.8-3.2
			c-4.9-0.2-8.3,3.5-8.5,8.2c-0.2,4.7,2.9,8.7,7.8,8.9c2.3,0.2,4.6-0.8,6-2.7l-0.1,1.4c0,0,0,0,0,0.1l0,1.1l3.3,0.2l0.1-1
			c0,0,0-0.1,0-0.1l0-0.9l0,0L64.9,47.9L64.9,47.9z M55.7,57.5c-3.3-0.1-5.1-2.8-5-5.9c0.1-3.1,2.1-5.6,5.5-5.4
			c3.3,0.1,5.3,2.6,5.3,5.9C61.3,55.3,59,57.6,55.7,57.5z"/>
	</g>
</g>
</svg>
